<svg version="1.1" id="Layer_1" xmlns="http://www.w3.org/2000/svg" xmlns:xlink="http://www.w3.org/1999/xlink" x="0px" y="0px"
	 width="100%" viewBox="0 0 500 500" enable-background="new 0 0 500 500" xml:space="preserve">
<path fill="#000000" opacity="1.000000" stroke="none" 
	d="
M346.000000,501.000000 
	C231.082352,501.000000 116.164703,501.000000 1.000000,501.000000 
	C1.000000,413.312042 1.000000,325.623871 1.272517,237.145782 
	C2.198304,237.263016 3.048448,238.086411 3.475265,239.089859 
	C9.747031,253.834564 21.683771,259.917084 37.057182,261.384949 
	C42.850693,276.139832 48.469345,290.571838 54.164444,305.359314 
	C59.491241,319.387146 64.863335,333.014374 69.960991,346.743469 
	C76.263474,363.717407 91.183647,374.909515 111.216049,370.919830 
	C115.156364,370.135071 118.931084,368.438446 122.724243,367.008698 
	C142.524353,359.545380 162.343292,352.129700 182.084015,344.511719 
	C205.583191,335.443359 228.991638,326.140167 252.472321,317.023468 
	C280.211609,306.253418 307.986115,295.573975 336.107483,284.961182 
	C336.046692,286.504608 335.849854,288.061127 335.165863,289.361359 
	C328.153717,302.690857 323.502228,316.961517 322.313019,331.796722 
	C321.401398,343.169952 322.509857,354.887482 324.160858,366.242340 
	C326.839996,384.667786 335.245453,400.890106 346.077942,416.331879 
	C346.014282,444.874237 346.007141,472.937134 346.000000,501.000000 
z"/>
<path fill="#4297CF" opacity="1.000000" stroke="none" 
	d="
M36.882328,261.062103 
	C21.683771,259.917084 9.747031,253.834564 3.475265,239.089859 
	C3.048448,238.086411 2.198304,237.263016 1.272517,236.677948 
	C1.000000,166.645767 1.000000,96.291542 1.290811,25.787029 
	C1.956726,25.308887 2.530216,25.052597 2.678049,24.642763 
	C6.874934,13.007898 14.600200,5.363807 26.991482,2.850753 
	C27.434546,2.760895 27.668558,1.640242 28.000000,1.000000 
	C29.066669,1.000000 30.133339,1.000000 31.872318,1.324515 
	C34.359501,1.766352 36.174355,1.986044 37.989246,1.986337 
	C137.341293,2.002359 236.693329,1.998892 336.045380,2.007266 
	C338.039307,2.007434 340.033203,2.124015 341.951080,2.510908 
	C341.436218,3.528832 341.107422,4.331679 340.542328,4.899250 
	C329.189606,16.301556 317.825073,27.692265 306.405457,39.027416 
	C305.512451,39.913845 304.196350,40.374050 303.050964,40.606731 
	C303.236237,37.330173 302.166016,35.810291 299.053223,35.975067 
	C296.241669,36.123901 293.406586,36.147892 290.598785,35.966064 
	C287.181854,35.744789 285.830994,37.074436 285.927948,40.557762 
	C286.126251,47.684200 286.035980,54.818665 285.698669,61.974316 
	C283.571960,63.148941 281.549072,64.035820 280.089355,65.488548 
	C256.822296,88.644295 233.615387,111.860527 210.446136,135.114166 
	C209.087418,136.477844 208.165375,138.276611 206.569733,139.905640 
	C202.616074,139.951279 199.125748,140.107498 195.651566,139.936081 
	C192.288742,139.770172 190.750366,140.953552 190.940033,144.492157 
	C191.161697,148.628220 191.052124,152.782059 190.719086,156.956726 
	C188.592285,158.132446 186.568069,159.014252 185.111847,160.465836 
	C153.066193,192.409561 121.079758,224.412750 89.103493,256.426025 
	C87.942101,257.588776 86.998627,258.969208 85.488480,260.270630 
	C70.569977,260.278473 56.116524,260.238495 41.663345,260.285187 
	C40.068851,260.290314 38.475964,260.791168 36.882328,261.062103 
M35.404678,79.907845 
	C35.488800,84.222443 35.241283,88.575226 35.732666,92.842934 
	C36.523647,99.712700 41.445038,104.676834 48.277332,104.828270 
	C62.725342,105.148506 77.190109,105.153732 91.638229,104.839195 
	C98.711807,104.685204 103.744720,99.511703 104.311417,92.444092 
	C104.667458,88.003670 104.287048,83.504204 104.486336,78.122322 
	C104.403305,72.731499 104.320274,67.340675 104.477501,61.071808 
	C104.479889,57.251263 104.673409,53.419273 104.445427,49.612526 
	C103.949883,41.337936 98.526878,36.121033 90.220688,36.048882 
	C76.762077,35.931973 63.301048,35.933025 49.842369,36.044643 
	C41.582245,36.113144 36.120300,41.259270 35.512142,49.554863 
	C35.209442,53.683849 35.473003,57.854347 35.246742,62.913250 
	C35.328278,68.269279 35.409817,73.625305 35.404678,79.907845 
M36.343029,191.683960 
	C35.905861,195.871124 35.424015,200.054276 35.045612,204.246735 
	C34.740921,207.622589 36.365704,209.063324 39.752750,208.998932 
	C45.558857,208.888550 51.370777,209.075089 57.176498,208.955139 
	C72.348404,208.641693 69.710449,211.763260 69.999283,195.690750 
	C70.005249,195.359055 70.132202,194.902252 69.965500,194.715332 
	C68.843857,193.457474 67.679382,191.225067 66.489601,191.200455 
	C56.711853,190.998001 46.925541,191.209396 36.343029,191.683960 
M112.448868,156.983658 
	C123.202278,156.872833 121.877342,158.220337 121.984734,147.381668 
	C121.992958,146.551620 121.907547,145.712936 121.997437,144.892715 
	C122.391510,141.296814 120.980171,139.779510 117.213791,139.916077 
	C111.078819,140.138504 104.928185,139.882004 98.787148,139.992981 
	C85.097229,140.240372 87.288467,137.532944 86.972862,152.332016 
	C86.900703,155.715744 88.017944,157.133820 91.543159,157.034286 
	C98.178970,156.846939 104.823906,156.982376 112.448868,156.983658 
M35.027180,145.640198 
	C35.027199,147.304932 35.177845,148.986099 34.998596,150.631287 
	C34.490238,155.297180 36.222507,157.348862 41.159035,157.059601 
	C46.799774,156.729095 52.476456,157.072311 58.134579,156.966095 
	C71.943954,156.706863 69.723824,159.444794 70.041420,144.663589 
	C70.113800,141.294876 69.031647,139.852097 65.478447,139.922363 
	C56.825176,140.093445 48.163876,140.096329 39.510746,139.921951 
	C35.912762,139.849442 34.685875,141.388474 35.027180,145.640198 
M141.882843,156.940308 
	C148.543716,156.954758 155.205429,157.043030 161.865311,156.968185 
	C175.467682,156.815369 173.853027,159.150864 174.000793,144.125626 
	C174.029800,141.176514 172.945099,139.912262 169.911804,139.946472 
	C160.920502,140.047882 151.927078,139.952087 142.935196,140.024368 
	C141.851288,140.033096 140.486801,140.289810 139.746979,140.969772 
	C137.959930,142.612198 139.042450,154.593704 141.882843,156.940308 
M251.048019,59.124134 
	C252.145142,60.070446 253.150909,61.697792 254.353302,61.859043 
	C268.289154,63.727966 269.145508,63.077034 268.925079,49.173397 
	C268.676086,33.464916 272.213348,36.338371 254.974365,35.978561 
	C251.864090,35.913643 250.926315,37.353355 250.977371,40.226280 
	C251.083786,46.214859 251.011795,52.206608 251.048019,59.124134 
z"/>
<path fill="#FFB57F" opacity="1.000000" stroke="none" 
	d="
M346.134460,415.852386 
	C335.245453,400.890106 326.839996,384.667786 324.160858,366.242340 
	C322.509857,354.887482 321.401398,343.169952 322.313019,331.796722 
	C323.502228,316.961517 328.153717,302.690857 335.165863,289.361359 
	C335.849854,288.061127 336.046692,286.504608 335.963867,284.687683 
	C328.093811,276.433746 320.729492,268.559174 313.225342,260.375305 
	C312.265137,259.027802 311.505951,257.933624 310.615204,256.959869 
	C296.448700,241.473816 282.262024,226.006210 268.087097,210.527893 
	C258.385529,199.934296 254.509125,187.718323 258.488922,173.660324 
	C266.305817,146.048126 300.272827,137.240753 320.936768,157.611206 
	C345.730560,182.052841 370.231293,206.791916 394.834717,231.426407 
	C399.299347,235.896683 403.647430,240.483398 408.013550,245.424286 
	C407.277771,249.844131 405.448853,253.955963 409.067444,257.572510 
	C420.596252,269.094940 432.049103,280.694672 443.680847,292.112183 
	C448.538086,296.879883 455.456635,295.052338 457.553589,288.670959 
	C458.861145,284.691864 457.188110,281.652771 454.395660,278.850159 
	C444.893372,269.313446 435.485931,259.682220 426.374756,249.940277 
	C431.637970,247.774887 436.728363,246.072571 441.469757,243.678955 
	C456.213837,236.235611 463.997833,219.132889 458.696259,203.545029 
	C453.070953,187.005325 446.173157,170.898422 439.834412,154.262573 
	C431.614014,132.720337 423.390289,111.518021 415.129456,89.925446 
	C415.155304,89.018486 415.218231,88.501793 415.565125,88.132957 
	C434.557648,106.992371 453.413818,125.560127 471.879944,144.507996 
	C477.050201,149.813171 481.484406,155.970627 485.526367,162.209976 
	C492.237793,172.569962 496.890564,183.890091 499.139679,196.120804 
	C499.212067,196.514572 500.355743,196.711380 501.000000,197.000000 
	C501.000000,269.687561 501.000000,342.375122 500.534485,415.470612 
	C466.248383,415.894714 432.427765,415.894379 398.607178,415.934052 
	C381.448486,415.954163 364.289856,416.046417 346.883301,416.037567 
	C346.468445,415.930176 346.301453,415.891296 346.134460,415.852386 
z"/>
<path fill="#3E8AC7" opacity="1.000000" stroke="none" 
	d="
M408.049316,245.016357 
	C403.647430,240.483398 399.299347,235.896683 394.834717,231.426407 
	C370.231293,206.791916 345.730560,182.052841 320.936768,157.611206 
	C300.272827,137.240753 266.305817,146.048126 258.488922,173.660324 
	C254.509125,187.718323 258.385529,199.934296 268.087097,210.527893 
	C282.262024,226.006210 296.448700,241.473816 310.615204,256.959869 
	C311.505951,257.933624 312.265137,259.027802 312.717041,260.384155 
	C265.479309,260.701569 218.610031,260.695770 171.740753,260.712433 
	C168.920273,260.713440 166.099854,260.893341 162.789520,260.899323 
	C138.822800,260.785583 115.345955,260.774109 91.869225,260.718384 
	C89.896988,260.713715 87.925461,260.411926 85.953606,260.248199 
	C86.998627,258.969208 87.942101,257.588776 89.103493,256.426025 
	C121.079758,224.412750 153.066193,192.409561 185.111847,160.465836 
	C186.568069,159.014252 188.592285,158.132446 191.178238,156.968903 
	C198.964630,156.957748 205.927155,157.083099 212.884323,156.943008 
	C227.115891,156.656403 224.786575,159.778473 225.063934,144.047897 
	C225.116348,141.074554 223.938522,139.860168 220.957947,139.926025 
	C216.321304,140.028458 211.679642,139.902206 207.040100,139.872894 
	C208.165375,138.276611 209.087418,136.477844 210.446136,135.114166 
	C233.615387,111.860527 256.822296,88.644295 280.089355,65.488548 
	C281.549072,64.035820 283.571960,63.148941 286.159576,61.984280 
	C290.959503,61.971699 294.935883,61.876411 298.904785,62.007534 
	C301.874969,62.105663 303.072266,60.905190 303.019287,57.916134 
	C302.919556,52.290314 303.045013,46.660500 303.076904,41.032341 
	C304.196350,40.374050 305.512451,39.913845 306.405457,39.027416 
	C317.825073,27.692265 329.189606,16.301556 340.542328,4.899250 
	C341.107422,4.331679 341.436218,3.528832 342.257385,2.442751 
	C343.052277,1.979801 343.464813,1.909631 344.354065,1.888422 
	C356.485809,1.961331 368.141052,2.019570 379.795746,1.964343 
	C381.198639,1.957695 382.598663,1.336409 384.000000,1.000000 
	C385.388885,1.000000 386.777802,1.000000 388.347717,1.344018 
	C389.792206,2.349434 390.990448,3.216837 392.329132,3.640272 
	C405.309204,7.745955 415.378174,22.905264 415.121094,35.140938 
	C414.751160,52.746765 415.188416,70.369553 415.281158,87.985107 
	C415.218231,88.501793 415.155304,89.018486 415.081421,90.365471 
	C415.124481,115.273163 415.178558,139.350555 415.163391,163.864777 
	C415.075073,183.443405 414.860626,202.587952 415.129883,221.725693 
	C415.242737,229.747299 414.008362,237.234879 409.868103,244.390274 
	C409.104218,244.694870 408.576782,244.855606 408.049316,245.016357 
M193.873657,191.076111 
	C192.905914,192.322861 191.285233,193.481293 191.102280,194.834167 
	C190.682938,197.935120 191.108566,201.139374 190.923691,204.285980 
	C190.724365,207.678543 191.973236,209.117279 195.494827,208.999008 
	C201.138351,208.809433 206.793015,208.951630 212.442963,208.951889 
	C225.378540,208.952499 225.262024,208.953354 225.118164,195.902588 
	C225.077911,192.250488 223.932037,190.887741 220.225098,190.973206 
	C211.754623,191.168549 203.276657,191.039642 193.873657,191.076111 
M354.957306,51.471909 
	C354.960114,53.631935 355.063751,55.797684 354.941559,57.950615 
	C354.768188,61.003784 356.197662,62.054615 359.119751,62.002754 
	C374.876770,61.723087 371.614319,64.061737 371.996521,49.738903 
	C372.014221,49.074753 372.012299,48.409397 371.996765,47.745136 
	C371.675629,34.024464 374.493011,36.288315 359.625702,35.958992 
	C356.252991,35.884289 354.701569,36.969521 354.918213,40.515381 
	C355.120483,43.826050 354.958710,47.158958 354.957306,51.471909 
M336.533173,60.901245 
	C336.692566,53.611088 338.045105,46.085941 336.668854,39.098221 
	C335.347412,32.388756 328.554596,37.290775 324.380798,36.101089 
	C321.801056,35.365768 319.937653,36.545948 319.999573,39.789871 
	C320.116943,45.939926 319.840240,52.104870 320.190399,58.237179 
	C320.264618,59.536827 322.249420,61.688999 323.483215,61.784889 
	C327.583191,62.103535 331.742035,61.664135 336.533173,60.901245 
z"/>
<path fill="#87B335" opacity="1.000000" stroke="none" 
	d="
M347.131195,416.106079 
	C364.289856,416.046417 381.448486,415.954163 398.607178,415.934052 
	C432.427765,415.894379 466.248383,415.894714 500.534485,415.939270 
	C501.000000,444.281372 501.000000,472.562775 501.000000,501.000000 
	C449.979218,501.000000 398.958252,501.000000 347.469360,500.531342 
	C347.044678,472.077148 347.087921,444.091614 347.131195,416.106079 
M371.996490,445.725159 
	C371.999268,448.876648 372.078217,452.030426 371.982025,455.178894 
	C371.897186,457.955811 373.155243,459.035065 375.868225,458.988892 
	C391.904846,458.715912 388.640839,461.170898 389.024139,446.541473 
	C389.045868,445.713257 389.320404,444.655518 388.923401,444.101624 
	C388.097473,442.949463 386.981232,441.332581 385.839661,441.205444 
	C382.398987,440.822388 378.839600,440.726501 375.431396,441.229431 
	C374.141632,441.419739 373.138367,443.551636 371.996490,445.725159 
z"/>
<path fill="#000000" opacity="1.000000" stroke="none" 
	d="
M415.565125,88.132957 
	C415.188416,70.369553 414.751160,52.746765 415.121094,35.140938 
	C415.378174,22.905264 405.309204,7.745955 392.329132,3.640272 
	C390.990448,3.216837 389.792206,2.349434 388.764404,1.344018 
	C426.280243,1.000000 463.560486,1.000000 501.000000,1.000000 
	C501.000000,66.020805 501.000000,131.041748 501.000000,196.531342 
	C500.355743,196.711380 499.212067,196.514572 499.139679,196.120804 
	C496.890564,183.890091 492.237793,172.569962 485.526367,162.209976 
	C481.484406,155.970627 477.050201,149.813171 471.879944,144.507996 
	C453.413818,125.560127 434.557648,106.992371 415.565125,88.132957 
z"/>
<path fill="#A5CCE8" opacity="1.000000" stroke="none" 
	d="
M343.877380,1.839459 
	C343.464813,1.909631 343.052277,1.979801 342.333435,2.118129 
	C340.033203,2.124015 338.039307,2.007434 336.045380,2.007266 
	C236.693329,1.998892 137.341293,2.002359 37.989246,1.986337 
	C36.174355,1.986044 34.359501,1.766352 32.272316,1.324515 
	C135.687561,1.000000 239.375122,1.000000 343.501617,1.210001 
	C343.940552,1.420001 343.877380,1.839458 343.877380,1.839459 
z"/>
<path fill="#000000" opacity="1.000000" stroke="none" 
	d="
M27.531338,1.000000 
	C27.668558,1.640242 27.434546,2.760895 26.991482,2.850753 
	C14.600200,5.363807 6.874934,13.007898 2.678049,24.642763 
	C2.530216,25.052597 1.956726,25.308887 1.290811,25.318371 
	C1.000000,17.069279 1.000000,9.138557 1.000000,1.000000 
	C9.686457,1.000000 18.374565,1.000000 27.531338,1.000000 
z"/>
<path fill="#9EC25D" opacity="1.000000" stroke="none" 
	d="
M346.883301,416.037567 
	C347.087921,444.091614 347.044678,472.077148 347.000732,500.531342 
	C347.000000,501.000000 346.500000,501.000000 346.250000,501.000000 
	C346.007141,472.937134 346.014282,444.874237 346.077942,416.331879 
	C346.301453,415.891296 346.468445,415.930176 346.883301,416.037567 
z"/>
<path fill="#74A9D4" opacity="1.000000" stroke="none" 
	d="
M344.354065,1.888421 
	C343.877380,1.839458 343.940552,1.420001 343.970276,1.210001 
	C357.020905,1.000000 370.041779,1.000000 383.531342,1.000000 
	C382.598663,1.336409 381.198639,1.957695 379.795746,1.964343 
	C368.141052,2.019570 356.485809,1.961331 344.354065,1.888421 
z"/>
<path fill="#DE4A3A" opacity="1.000000" stroke="none" 
	d="
M163.279404,260.989990 
	C166.099854,260.893341 168.920273,260.713440 171.740753,260.712433 
	C218.610031,260.695770 265.479309,260.701569 312.856873,260.693481 
	C320.729492,268.559174 328.093811,276.433746 335.601746,284.581787 
	C307.986115,295.573975 280.211609,306.253418 252.472321,317.023468 
	C228.991638,326.140167 205.583191,335.443359 182.084015,344.511719 
	C162.343292,352.129700 142.524353,359.545380 122.724243,367.008698 
	C118.931084,368.438446 115.156364,370.135071 111.216049,370.919830 
	C91.183647,374.909515 76.263474,363.717407 69.960991,346.743469 
	C64.863335,333.014374 59.491241,319.387146 54.401260,305.112244 
	C55.973915,303.691101 57.307671,302.671753 58.810230,302.083832 
	C81.745369,293.109253 104.717606,284.229370 127.648453,275.243896 
	C139.558487,270.576965 151.404480,265.746552 163.279404,260.989990 
z"/>
<path fill="#79482F" opacity="1.000000" stroke="none" 
	d="
M162.789520,260.899323 
	C151.404480,265.746552 139.558487,270.576965 127.648453,275.243896 
	C104.717606,284.229370 81.745369,293.109253 58.810230,302.083832 
	C57.307671,302.671753 55.973915,303.691101 54.324821,304.756775 
	C48.469345,290.571838 42.850693,276.139832 37.057182,261.384949 
	C38.475964,260.791168 40.068851,260.290314 41.663345,260.285187 
	C56.116524,260.238495 70.569977,260.278473 85.488480,260.270630 
	C87.925461,260.411926 89.896988,260.713715 91.869225,260.718384 
	C115.345955,260.774109 138.822800,260.785583 162.789520,260.899323 
z"/>
<path fill="#FBB430" opacity="1.000000" stroke="none" 
	d="
M35.480412,62.006069 
	C35.473003,57.854347 35.209442,53.683849 35.512142,49.554863 
	C36.120300,41.259270 41.582245,36.113144 49.842369,36.044643 
	C63.301048,35.933025 76.762077,35.931973 90.220688,36.048882 
	C98.526878,36.121033 103.949883,41.337936 104.445427,49.612526 
	C104.673409,53.419273 104.479889,57.251263 103.939804,61.520161 
	C99.244164,61.972725 95.084572,61.902355 90.928596,61.994759 
	C76.963013,62.305264 79.212341,59.321648 78.909721,74.663223 
	C78.846069,77.889709 80.055664,79.109329 83.282028,79.045898 
	C90.264435,78.908615 97.251740,79.020966 104.237045,79.031227 
	C104.287048,83.504204 104.667458,88.003670 104.311417,92.444092 
	C103.744720,99.511703 98.711807,104.685204 91.638229,104.839195 
	C77.190109,105.153732 62.725342,105.148506 48.277332,104.828270 
	C41.445038,104.676834 36.523647,99.712700 35.732666,92.842934 
	C35.241283,88.575226 35.488800,84.222443 35.884689,79.452919 
	C40.690823,79.001099 45.018600,79.083466 49.342747,78.992638 
	C63.022305,78.705307 60.775036,81.525352 61.105644,66.569077 
	C61.182480,63.093288 59.887394,61.844604 56.443996,61.932533 
	C49.460060,62.110863 42.468708,61.998562 35.480412,62.006069 
z"/>
<path fill="#5AB1CF" opacity="1.000000" stroke="none" 
	d="
M36.742424,191.489609 
	C46.925541,191.209396 56.711853,190.998001 66.489601,191.200455 
	C67.679382,191.225067 68.843857,193.457474 69.965500,194.715332 
	C70.132202,194.902252 70.005249,195.359055 69.999283,195.690750 
	C69.710449,211.763260 72.348404,208.641693 57.176498,208.955139 
	C51.370777,209.075089 45.558857,208.888550 39.752750,208.998932 
	C36.365704,209.063324 34.740921,207.622589 35.045612,204.246735 
	C35.424015,200.054276 35.905861,195.871124 36.742424,191.489609 
z"/>
<path fill="#5BB2CF" opacity="1.000000" stroke="none" 
	d="
M111.956955,156.983627 
	C104.823906,156.982376 98.178970,156.846939 91.543159,157.034286 
	C88.017944,157.133820 86.900703,155.715744 86.972862,152.332016 
	C87.288467,137.532944 85.097229,140.240372 98.787148,139.992981 
	C104.928185,139.882004 111.078819,140.138504 117.213791,139.916077 
	C120.980171,139.779510 122.391510,141.296814 121.997437,144.892715 
	C121.907547,145.712936 121.992958,146.551620 121.984734,147.381668 
	C121.877342,158.220337 123.202278,156.872833 111.956955,156.983627 
z"/>
<path fill="#5BB2CF" opacity="1.000000" stroke="none" 
	d="
M35.028118,145.172638 
	C34.685875,141.388474 35.912762,139.849442 39.510746,139.921951 
	C48.163876,140.096329 56.825176,140.093445 65.478447,139.922363 
	C69.031647,139.852097 70.113800,141.294876 70.041420,144.663589 
	C69.723824,159.444794 71.943954,156.706863 58.134579,156.966095 
	C52.476456,157.072311 46.799774,156.729095 41.159035,157.059601 
	C36.222507,157.348862 34.490238,155.297180 34.998596,150.631287 
	C35.177845,148.986099 35.027199,147.304932 35.028118,145.172638 
z"/>
<path fill="#5BB2CF" opacity="1.000000" stroke="none" 
	d="
M141.434128,156.882172 
	C139.042450,154.593704 137.959930,142.612198 139.746979,140.969772 
	C140.486801,140.289810 141.851288,140.033096 142.935196,140.024368 
	C151.927078,139.952087 160.920502,140.047882 169.911804,139.946472 
	C172.945099,139.912262 174.029800,141.176514 174.000793,144.125626 
	C173.853027,159.150864 175.467682,156.815369 161.865311,156.968185 
	C155.205429,157.043030 148.543716,156.954758 141.434128,156.882172 
z"/>
<path fill="#5BB2CF" opacity="1.000000" stroke="none" 
	d="
M206.569733,139.905640 
	C211.679642,139.902206 216.321304,140.028458 220.957947,139.926025 
	C223.938522,139.860168 225.116348,141.074554 225.063934,144.047897 
	C224.786575,159.778473 227.115891,156.656403 212.884323,156.943008 
	C205.927155,157.083099 198.964630,156.957748 191.545380,156.940353 
	C191.052124,152.782059 191.161697,148.628220 190.940033,144.492157 
	C190.750366,140.953552 192.288742,139.770172 195.651566,139.936081 
	C199.125748,140.107498 202.616074,139.951279 206.569733,139.905640 
z"/>
<path fill="#5BB2CF" opacity="1.000000" stroke="none" 
	d="
M251.030548,58.660591 
	C251.011795,52.206608 251.083786,46.214859 250.977371,40.226280 
	C250.926315,37.353355 251.864090,35.913643 254.974365,35.978561 
	C272.213348,36.338371 268.676086,33.464916 268.925079,49.173397 
	C269.145508,63.077034 268.289154,63.727966 254.353302,61.859043 
	C253.150909,61.697792 252.145142,60.070446 251.030548,58.660591 
z"/>
<path fill="#FA7B31" opacity="1.000000" stroke="none" 
	d="
M104.361694,78.576775 
	C97.251740,79.020966 90.264435,78.908615 83.282028,79.045898 
	C80.055664,79.109329 78.846069,77.889709 78.909721,74.663223 
	C79.212341,59.321648 76.963013,62.305264 90.928596,61.994759 
	C95.084572,61.902355 99.244164,61.972725 103.819672,61.959183 
	C104.320274,67.340675 104.403305,72.731499 104.361694,78.576775 
z"/>
<path fill="#FB7B30" opacity="1.000000" stroke="none" 
	d="
M35.363579,62.459660 
	C42.468708,61.998562 49.460060,62.110863 56.443996,61.932533 
	C59.887394,61.844604 61.182480,63.093288 61.105644,66.569077 
	C60.775036,81.525352 63.022305,78.705307 49.342747,78.992638 
	C45.018600,79.083466 40.690823,79.001099 35.928032,78.989662 
	C35.409817,73.625305 35.328278,68.269279 35.363579,62.459660 
z"/>
<path fill="#5BB2CF" opacity="1.000000" stroke="none" 
	d="
M303.050995,40.606735 
	C303.045013,46.660500 302.919556,52.290314 303.019287,57.916134 
	C303.072266,60.905190 301.874969,62.105663 298.904785,62.007534 
	C294.935883,61.876411 290.959503,61.971699 286.525452,61.959789 
	C286.035980,54.818665 286.126251,47.684200 285.927948,40.557762 
	C285.830994,37.074436 287.181854,35.744789 290.598785,35.966064 
	C293.406586,36.147892 296.241669,36.123901 299.053223,35.975067 
	C302.166016,35.810291 303.236237,37.330173 303.050995,40.606735 
z"/>
<path fill="#DE4B3B" opacity="1.000000" stroke="none" 
	d="
M410.104523,244.246399 
	C414.008362,237.234879 415.242737,229.747299 415.129883,221.725693 
	C414.860626,202.587952 415.075073,183.443405 415.541260,163.777435 
	C423.935944,160.369690 431.883514,157.486099 439.831085,154.602509 
	C446.173157,170.898422 453.070953,187.005325 458.696259,203.545029 
	C463.997833,219.132889 456.213837,236.235611 441.469757,243.678955 
	C436.728363,246.072571 431.637970,247.774887 426.084259,249.761063 
	C421.248291,245.363541 417.040039,240.985260 410.104523,244.246399 
z"/>
<path fill="#F0A36E" opacity="1.000000" stroke="none" 
	d="
M409.868103,244.390274 
	C417.040039,240.985260 421.248291,245.363541 425.751770,249.907867 
	C435.485931,259.682220 444.893372,269.313446 454.395660,278.850159 
	C457.188110,281.652771 458.861145,284.691864 457.553589,288.670959 
	C455.456635,295.052338 448.538086,296.879883 443.680847,292.112183 
	C432.049103,280.694672 420.596252,269.094940 409.067444,257.572510 
	C405.448853,253.955963 407.277771,249.844131 408.013550,245.424286 
	C408.576782,244.855606 409.104218,244.694870 409.868103,244.390274 
z"/>
<path fill="#7A4930" opacity="1.000000" stroke="none" 
	d="
M439.834412,154.262573 
	C431.883514,157.486099 423.935944,160.369690 415.610474,163.340607 
	C415.178558,139.350555 415.124481,115.273163 415.118500,90.755737 
	C423.390289,111.518021 431.614014,132.720337 439.834412,154.262573 
z"/>
<path fill="#5BB1CF" opacity="1.000000" stroke="none" 
	d="
M194.337708,191.059280 
	C203.276657,191.039642 211.754623,191.168549 220.225098,190.973206 
	C223.932037,190.887741 225.077911,192.250488 225.118164,195.902588 
	C225.262024,208.953354 225.378540,208.952499 212.442963,208.951889 
	C206.793015,208.951630 201.138351,208.809433 195.494827,208.999008 
	C191.973236,209.117279 190.724365,207.678543 190.923691,204.285980 
	C191.108566,201.139374 190.682938,197.935120 191.102280,194.834167 
	C191.285233,193.481293 192.905914,192.322861 194.337708,191.059280 
z"/>
<path fill="#5BB2CF" opacity="1.000000" stroke="none" 
	d="
M354.957245,50.976994 
	C354.958710,47.158958 355.120483,43.826050 354.918213,40.515381 
	C354.701569,36.969521 356.252991,35.884289 359.625702,35.958992 
	C374.493011,36.288315 371.675629,34.024464 371.996765,47.745136 
	C372.012299,48.409397 372.014221,49.074753 371.996521,49.738903 
	C371.614319,64.061737 374.876770,61.723087 359.119751,62.002754 
	C356.197662,62.054615 354.768188,61.003784 354.941559,57.950615 
	C355.063751,55.797684 354.960114,53.631935 354.957245,50.976994 
z"/>
<path fill="#5BB2CF" opacity="1.000000" stroke="none" 
	d="
M336.205750,61.208324 
	C331.742035,61.664135 327.583191,62.103535 323.483215,61.784889 
	C322.249420,61.688999 320.264618,59.536827 320.190399,58.237179 
	C319.840240,52.104870 320.116943,45.939926 319.999573,39.789871 
	C319.937653,36.545948 321.801056,35.365768 324.380798,36.101089 
	C328.554596,37.290775 335.347412,32.388756 336.668854,39.098221 
	C338.045105,46.085941 336.692566,53.611088 336.205750,61.208324 
z"/>
<path fill="#699529" opacity="1.000000" stroke="none" 
	d="
M372.000488,445.261841 
	C373.138367,443.551636 374.141632,441.419739 375.431396,441.229431 
	C378.839600,440.726501 382.398987,440.822388 385.839661,441.205444 
	C386.981232,441.332581 388.097473,442.949463 388.923401,444.101624 
	C389.320404,444.655518 389.045868,445.713257 389.024139,446.541473 
	C388.640839,461.170898 391.904846,458.715912 375.868225,458.988892 
	C373.155243,459.035065 371.897186,457.955811 371.982025,455.178894 
	C372.078217,452.030426 371.999268,448.876648 372.000488,445.261841 
z"/>
</svg>