<svg version="1.1" id="Layer_1" xmlns="http://www.w3.org/2000/svg" xmlns:xlink="http://www.w3.org/1999/xlink" x="0px" y="0px"
	 width="100%" viewBox="0 0 512 512" enable-background="new 0 0 512 512" xml:space="preserve">
<path fill="#000000" opacity="1.000000" stroke="none" 
	d="
M354.000000,513.000000 
	C236.415695,513.000000 118.831398,513.000000 1.000000,513.000000 
	C1.000000,423.312042 1.000000,333.623871 1.290962,243.148926 
	C1.958199,242.685516 2.527266,242.935226 2.682957,243.342850 
	C8.852201,259.494415 21.031094,266.709930 37.899742,267.445801 
	C43.564510,282.208069 49.174763,296.594666 54.873093,311.364014 
	C61.304375,328.150238 67.093185,344.796600 74.144119,360.889984 
	C81.438293,377.538544 100.764191,385.091064 117.527840,379.104126 
	C126.575661,375.872803 135.544022,372.416260 144.521515,368.991333 
	C169.352463,359.518311 194.186691,350.053436 218.987320,340.501465 
	C247.873550,329.375885 276.730133,318.173218 305.590302,306.980042 
	C318.356201,302.028931 331.099304,297.018982 343.987244,292.338257 
	C344.272430,293.055908 344.680481,293.626892 344.536987,293.863861 
	C334.368408,310.657257 330.136139,329.267120 329.248962,348.498016 
	C328.817169,357.858368 330.520996,367.419403 332.095001,376.748413 
	C335.167877,394.960632 343.467316,410.977264 354.103577,426.314362 
	C354.023010,455.527435 354.011505,484.263733 354.000000,513.000000 
z"/>
<path fill="#4297CF" opacity="1.000000" stroke="none" 
	d="
M37.845226,267.070160 
	C21.031094,266.709930 8.852201,259.494415 2.682957,243.342850 
	C2.527266,242.935226 1.958199,242.685516 1.290962,242.681091 
	C1.000000,170.645767 1.000000,98.291542 1.291907,25.787209 
	C1.841209,25.432468 2.238189,25.279537 2.335898,25.015753 
	C6.411663,14.012378 13.984667,6.640360 25.104343,2.856791 
	C25.560661,2.701525 25.708462,1.639545 26.000000,1.000000 
	C134.020889,1.000000 242.041794,1.000000 350.471985,1.338510 
	C350.359802,2.507379 349.971619,3.470421 349.296936,4.148365 
	C337.369202,16.134060 325.420837,28.099428 313.422424,40.014282 
	C312.528229,40.902260 311.221100,41.374443 310.073669,41.613441 
	C310.238190,38.336964 309.176300,36.821121 306.050720,36.968315 
	C302.731934,37.124611 299.395874,37.109631 296.075348,36.973701 
	C293.026886,36.848915 291.875153,38.215549 292.020477,41.151028 
	C292.381104,48.436226 292.658630,55.725536 292.609650,63.025909 
	C290.498688,64.193810 288.491821,65.092026 287.034760,66.542542 
	C263.102539,90.367149 239.227661,114.249474 215.392380,138.171112 
	C214.038055,139.530334 213.135712,141.339905 211.553040,142.958023 
	C207.100571,142.984802 203.115051,143.091553 199.136551,142.969757 
	C196.177704,142.879181 194.896835,144.045776 194.990860,147.056595 
	C195.115128,151.034912 195.004425,155.020554 194.707520,159.169373 
	C193.911102,159.762466 193.365967,160.153305 192.897888,160.621231 
	C158.770065,194.735367 124.643700,228.850967 90.548660,262.997833 
	C89.524078,264.023987 88.832710,265.382843 87.519836,266.621521 
	C85.063354,266.651276 83.072823,266.625275 81.082718,266.644165 
	C66.670174,266.781067 52.257713,266.927063 37.845226,267.070160 
M36.266270,81.910713 
	C36.271877,85.727264 36.085327,89.555840 36.323349,93.357841 
	C36.809120,101.117172 41.439861,106.901329 48.757202,107.134232 
	C63.997726,107.619286 79.274101,107.608261 94.515923,107.146706 
	C101.732658,106.928185 106.567970,101.175377 106.921234,93.934624 
	C107.130966,89.635925 106.880844,85.314796 106.972580,80.075645 
	C106.927361,74.411217 106.882141,68.746796 106.975700,62.147430 
	C106.983704,58.649364 107.067734,55.149498 106.984833,51.653587 
	C106.772415,42.695503 101.146881,37.015099 92.188141,36.948387 
	C78.529297,36.846676 64.868614,36.848724 51.209740,36.948376 
	C42.441727,37.012344 36.834446,42.347660 36.322216,51.101269 
	C36.089348,55.080879 36.350559,59.089405 36.146740,63.974926 
	C36.214031,69.643356 36.281319,75.311783 36.266270,81.910713 
M37.980831,143.158508 
	C37.328705,144.516235 36.262821,145.829788 36.112072,147.241058 
	C35.814068,150.030853 36.158779,152.883026 35.987911,155.694199 
	C35.756023,159.509384 37.282955,161.139923 41.194298,161.018860 
	C47.163517,160.834122 53.143623,161.039612 59.117538,160.960648 
	C73.839455,160.766068 71.751465,163.262863 72.030365,147.454620 
	C72.093727,143.863754 70.571434,142.898422 67.263184,142.950241 
	C57.805122,143.098404 48.343605,143.025940 37.980831,143.158508 
M89.026779,146.789948 
	C89.025803,149.943298 89.117256,153.100128 88.998810,156.249054 
	C88.871162,159.642471 90.368645,161.057312 93.749901,160.997894 
	C99.888725,160.889969 106.031799,161.041031 112.171463,160.959946 
	C126.832130,160.766357 124.777145,163.278366 125.016220,147.401001 
	C125.063683,144.249084 123.987762,142.908478 120.708031,142.955673 
	C111.581757,143.086990 102.448875,142.875977 93.327766,143.129623 
	C91.881203,143.169846 90.482101,144.916870 89.026779,146.789948 
M142.686264,159.658813 
	C144.385727,160.096832 146.076157,160.865982 147.786285,160.912567 
	C153.592163,161.070740 159.405899,161.040085 165.214996,160.960815 
	C179.829849,160.761398 177.777008,163.294968 178.016968,147.351807 
	C178.065125,144.152252 176.890823,142.910080 173.657150,142.955765 
	C164.528687,143.084732 155.396744,143.054764 146.267258,142.969788 
	C143.425491,142.943344 141.857788,143.808456 142.003906,146.931213 
	C142.189789,150.903549 142.207047,154.883789 142.686264,159.658813 
M50.505695,195.994736 
	C49.839111,195.994736 49.172119,195.979309 48.506004,195.997025 
	C33.830669,196.387253 36.301296,193.071548 35.998734,209.215179 
	C35.935162,212.607086 37.336555,214.060349 40.749340,213.998795 
	C46.913158,213.887589 53.081291,214.036438 59.246201,213.960861 
	C73.785034,213.782684 71.820145,216.143860 71.980415,200.723923 
	C71.983879,200.390732 71.953117,200.056107 71.973907,199.724365 
	C72.152412,196.876114 70.667763,195.937256 68.001480,195.977585 
	C62.503498,196.060745 57.003300,195.997635 50.505695,195.994736 
M257.004211,50.496269 
	C257.004059,63.200760 257.004059,63.200687 269.607178,63.021057 
	C269.939270,63.016327 270.274170,62.988953 270.603119,63.020592 
	C273.768188,63.324963 275.127533,61.994320 275.034698,58.726551 
	C274.879120,53.250965 274.775665,47.755951 275.067596,42.291405 
	C275.291809,38.094330 273.679840,36.899204 269.616028,36.915012 
	C257.004700,36.964073 257.004150,36.820602 257.004211,50.496269 
z"/>
<path fill="#FFB57F" opacity="1.000000" stroke="none" 
	d="
M354.172607,425.837555 
	C343.467316,410.977264 335.167877,394.960632 332.095001,376.748413 
	C330.520996,367.419403 328.817169,357.858368 329.248962,348.498016 
	C330.136139,329.267120 334.368408,310.657257 344.536987,293.863861 
	C344.680481,293.626892 344.272430,293.055908 343.918274,292.016113 
	C336.150421,283.187439 328.586060,274.983521 320.870605,266.491943 
	C318.175110,263.346191 315.661957,260.459564 313.081116,257.634735 
	C299.608337,242.888306 285.945160,228.311142 272.694000,213.368484 
	C263.536896,203.042465 260.838593,190.840118 264.710663,177.510818 
	C272.896637,149.331375 307.586365,140.614212 328.829254,161.571747 
	C354.781128,187.175034 380.438416,213.077011 406.204742,238.868134 
	C410.197632,242.864868 414.092743,246.959274 417.960999,251.379120 
	C414.590302,258.009094 417.021240,262.707306 421.638916,267.203613 
	C431.651672,276.953278 441.419464,286.954132 451.354034,296.784973 
	C452.867401,298.282562 454.595276,299.690186 456.468628,300.672913 
	C461.636230,303.383850 468.117188,300.530792 468.580475,294.806976 
	C468.811249,291.956360 467.325867,288.207794 465.329285,286.065094 
	C455.810913,275.849884 445.850647,266.046478 436.397400,255.990875 
	C440.921692,254.223724 445.149017,252.683029 449.261322,250.879959 
	C467.273224,242.982559 475.641205,224.262222 468.939148,205.824646 
	C463.085724,189.721710 456.619781,173.841446 450.333740,157.490540 
	C442.654175,137.307846 435.036377,117.508385 427.523376,97.669243 
	C426.807831,95.779686 426.747742,93.641899 426.722076,91.657249 
	C447.421387,112.013000 467.804047,132.308853 488.110596,152.680603 
	C490.287231,154.864273 492.139526,157.404999 493.938934,159.925308 
	C502.206696,171.505356 507.929626,184.234161 511.068665,198.132156 
	C511.233704,198.862900 512.334717,199.382233 513.000000,200.000000 
	C513.000000,274.687561 513.000000,349.375122 512.535278,424.599304 
	C459.437897,425.369812 406.805267,425.603699 354.172607,425.837555 
z"/>
<path fill="#3D8AC7" opacity="1.000000" stroke="none" 
	d="
M418.033081,251.008530 
	C414.092743,246.959274 410.197632,242.864868 406.204742,238.868134 
	C380.438416,213.077011 354.781128,187.175034 328.829254,161.571747 
	C307.586365,140.614212 272.896637,149.331375 264.710663,177.510818 
	C260.838593,190.840118 263.536896,203.042465 272.694000,213.368484 
	C285.945160,228.311142 299.608337,242.888306 313.081116,257.634735 
	C315.661957,260.459564 318.175110,263.346191 320.398071,266.524292 
	C282.335876,266.852386 244.595078,266.843658 206.854324,266.877808 
	C193.889099,266.889526 180.923965,267.008453 167.499466,267.004883 
	C156.595718,266.916229 146.151184,266.928833 135.706940,266.879486 
	C119.799850,266.804382 103.892967,266.686371 87.985992,266.586578 
	C88.832710,265.382843 89.524078,264.023987 90.548660,262.997833 
	C124.643700,228.850967 158.770065,194.735367 192.897888,160.621231 
	C193.365967,160.153305 193.911102,159.762466 194.932068,159.489319 
	C197.143814,160.078949 198.838104,160.863708 200.544769,160.891571 
	C208.667816,161.024216 216.799088,161.102875 224.915909,160.841721 
	C226.887085,160.778305 230.444336,159.440582 230.491653,158.542358 
	C230.754883,153.545151 230.214172,148.497650 229.718292,143.490173 
	C229.691452,143.219147 227.588211,143.030563 226.448532,143.014343 
	C221.640640,142.945969 216.831635,142.957550 212.023026,142.939880 
	C213.135712,141.339905 214.038055,139.530334 215.392380,138.171112 
	C239.227661,114.249474 263.102539,90.367149 287.034760,66.542542 
	C288.491821,65.092026 290.498688,64.193810 293.080933,63.034985 
	C297.734741,63.033463 301.564697,62.890068 305.377899,63.081028 
	C308.788971,63.251850 310.178619,62.001190 310.065826,58.490425 
	C309.889832,53.013008 310.074219,47.524014 310.105927,42.039921 
	C311.221100,41.374443 312.528229,40.902260 313.422424,40.014282 
	C325.420837,28.099428 337.369202,16.134060 349.296936,4.148365 
	C349.971619,3.470421 350.359802,2.507379 350.940643,1.338510 
	C367.020905,1.000000 383.041779,1.000000 399.232788,1.308767 
	C399.881439,2.045789 400.288605,2.658271 400.848938,2.875503 
	C417.348145,9.271884 424.643372,19.502314 425.058105,37.401787 
	C425.040710,55.278290 425.046204,72.683510 425.040955,90.476189 
	C425.062103,91.380920 425.093994,91.898193 425.085876,92.856400 
	C425.097504,117.998413 425.149170,142.699478 425.130249,167.839020 
	C425.040894,186.092377 424.887177,203.908539 425.058441,221.721588 
	C425.148346,231.071503 425.142822,240.316315 420.948059,248.985428 
	C420.976959,249.000977 420.991333,248.937057 420.708130,249.004425 
	C420.262817,249.417648 420.100739,249.763504 419.706116,250.242798 
	C418.993439,250.586990 418.513275,250.797760 418.033081,251.008530 
M195.029572,204.489029 
	C195.029663,205.484390 195.140884,206.494476 195.011154,207.472626 
	C194.348907,212.465820 196.413803,214.362823 201.469528,214.032318 
	C206.920700,213.675964 212.414368,214.024734 217.887466,213.938110 
	C232.936005,213.699936 230.741013,216.476715 231.003494,200.186905 
	C231.057373,196.843155 229.593994,195.902771 226.501694,195.951096 
	C218.540802,196.075485 210.576630,195.988327 202.613770,195.989655 
	C195.047928,195.990921 195.047928,195.993134 195.029572,204.489029 
M363.012299,48.518570 
	C363.012115,63.645969 363.009216,63.560272 376.624237,63.098759 
	C379.801727,62.991047 381.136505,61.975815 381.027496,58.724606 
	C380.866058,53.909737 380.992310,49.085331 380.990204,44.264984 
	C380.987000,36.997360 380.984131,36.930695 373.610779,37.006725 
	C361.350342,37.133148 363.197113,35.358582 363.012299,48.518570 
M328.141479,38.945488 
	C328.089264,42.601299 327.996552,46.257057 327.991943,49.912926 
	C327.974243,64.000061 327.981171,63.941700 342.006836,63.083862 
	C344.672760,62.920807 345.995514,62.095474 345.960663,59.284138 
	C345.884369,53.132385 346.039032,46.976032 345.855957,40.828796 
	C345.819244,39.595211 344.697571,37.341110 344.082001,37.343140 
	C338.872803,37.360329 333.664948,37.791859 328.141479,38.945488 
z"/>
<path fill="#87B335" opacity="1.000000" stroke="none" 
	d="
M354.103577,426.314362 
	C406.805267,425.603699 459.437897,425.369812 512.535278,425.067993 
	C513.000000,454.281281 513.000000,483.562592 513.000000,513.000000 
	C460.312531,513.000000 407.624939,513.000000 354.468658,513.000000 
	C354.011505,484.263733 354.023010,455.527435 354.103577,426.314362 
M381.032928,454.865417 
	C381.018555,456.529755 380.974640,458.194489 380.994568,459.858398 
	C381.132812,471.396240 379.540802,469.874939 391.051056,469.965393 
	C398.956757,470.027527 399.008667,469.971375 398.950836,461.932526 
	C398.868652,450.512970 400.325073,452.027344 388.717407,452.091156 
	C386.190796,452.105072 383.670746,453.309387 381.032928,454.865417 
z"/>
<path fill="#000000" opacity="1.000000" stroke="none" 
	d="
M425.080963,36.930496 
	C424.643372,19.502314 417.348145,9.271884 400.848938,2.875503 
	C400.288605,2.658271 399.881439,2.045789 399.701447,1.308767 
	C437.613800,1.000000 475.227570,1.000000 513.000000,1.000000 
	C513.000000,67.020813 513.000000,133.041748 513.000000,199.531342 
	C512.334717,199.382233 511.233704,198.862900 511.068665,198.132156 
	C507.929626,184.234161 502.206696,171.505356 493.938934,159.925308 
	C492.139526,157.404999 490.287231,154.864273 488.110596,152.680603 
	C467.804047,132.308853 447.421387,112.013000 426.651367,91.649506 
	C426.241943,91.603851 426.180267,91.734245 426.344971,91.423912 
	C426.281525,90.710571 426.053375,90.307556 425.897827,89.446976 
	C425.980316,73.005890 426.012543,57.022305 425.959930,41.038998 
	C425.955414,39.668549 425.387299,38.299953 425.080963,36.930496 
z"/>
<path fill="#000000" opacity="1.000000" stroke="none" 
	d="
M25.531321,1.000000 
	C25.708462,1.639545 25.560661,2.701525 25.104343,2.856791 
	C13.984667,6.640360 6.411663,14.012378 2.335898,25.015753 
	C2.238189,25.279537 1.841209,25.432468 1.291907,25.318550 
	C1.000000,17.072140 1.000000,9.144280 1.000000,1.000000 
	C9.019587,1.000000 17.041115,1.000000 25.531321,1.000000 
z"/>
<path fill="#DE4A3A" opacity="1.000000" stroke="none" 
	d="
M167.958801,267.078400 
	C180.923965,267.008453 193.889099,266.889526 206.854324,266.877808 
	C244.595078,266.843658 282.335876,266.852386 320.549194,266.811951 
	C328.586060,274.983521 336.150421,283.187439 343.783752,291.713562 
	C331.099304,297.018982 318.356201,302.028931 305.590302,306.980042 
	C276.730133,318.173218 247.873550,329.375885 218.987320,340.501465 
	C194.186691,350.053436 169.352463,359.518311 144.521515,368.991333 
	C135.544022,372.416260 126.575661,375.872803 117.527840,379.104126 
	C100.764191,385.091064 81.438293,377.538544 74.144119,360.889984 
	C67.093185,344.796600 61.304375,328.150238 55.256790,311.315247 
	C75.559822,303.168274 95.587265,295.504333 115.568604,287.721985 
	C133.058914,280.909851 150.497406,273.964752 167.958801,267.078400 
z"/>
<path fill="#79472E" opacity="1.000000" stroke="none" 
	d="
M167.499466,267.004883 
	C150.497406,273.964752 133.058914,280.909851 115.568604,287.721985 
	C95.587265,295.504333 75.559822,303.168274 55.168713,310.932465 
	C49.174763,296.594666 43.564510,282.208069 37.899742,267.445801 
	C52.257713,266.927063 66.670174,266.781067 81.082718,266.644165 
	C83.072823,266.625275 85.063354,266.651276 87.519836,266.621521 
	C103.892967,266.686371 119.799850,266.804382 135.706940,266.879486 
	C146.151184,266.928833 156.595718,266.916229 167.499466,267.004883 
z"/>
<path fill="#FBB530" opacity="1.000000" stroke="none" 
	d="
M36.387650,63.084808 
	C36.350559,59.089405 36.089348,55.080879 36.322216,51.101269 
	C36.834446,42.347660 42.441727,37.012344 51.209740,36.948376 
	C64.868614,36.848724 78.529297,36.846676 92.188141,36.948387 
	C101.146881,37.015099 106.772415,42.695503 106.984833,51.653587 
	C107.067734,55.149498 106.983704,58.649364 106.448326,62.603302 
	C101.591446,63.054920 97.261124,62.993813 92.932594,63.056763 
	C78.205902,63.270935 80.322296,60.801643 80.016182,76.108597 
	C79.943642,79.736076 81.087227,81.181229 84.858849,81.066292 
	C92.178902,80.843239 99.510605,81.002747 106.837479,81.003754 
	C106.880844,85.314796 107.130966,89.635925 106.921234,93.934624 
	C106.567970,101.175377 101.732658,106.928185 94.515923,107.146706 
	C79.274101,107.608261 63.997726,107.619286 48.757202,107.134232 
	C41.439861,106.901329 36.809120,101.117172 36.323349,93.357841 
	C36.085327,89.555840 36.271877,85.727264 36.753487,81.452499 
	C41.570660,80.997612 45.900623,81.003418 50.230583,81.003830 
	C63.451878,81.005096 63.343151,81.006584 63.059414,67.602936 
	C62.985542,64.113182 61.799446,62.909302 58.368786,62.994831 
	C51.045547,63.177410 43.715126,63.072147 36.387650,63.084808 
z"/>
<path fill="#5BB2CF" opacity="1.000000" stroke="none" 
	d="
M38.432137,143.099365 
	C48.343605,143.025940 57.805122,143.098404 67.263184,142.950241 
	C70.571434,142.898422 72.093727,143.863754 72.030365,147.454620 
	C71.751465,163.262863 73.839455,160.766068 59.117538,160.960648 
	C53.143623,161.039612 47.163517,160.834122 41.194298,161.018860 
	C37.282955,161.139923 35.756023,159.509384 35.987911,155.694199 
	C36.158779,152.883026 35.814068,150.030853 36.112072,147.241058 
	C36.262821,145.829788 37.328705,144.516235 38.432137,143.099365 
z"/>
<path fill="#5BB2CF" opacity="1.000000" stroke="none" 
	d="
M89.043915,146.332367 
	C90.482101,144.916870 91.881203,143.169846 93.327766,143.129623 
	C102.448875,142.875977 111.581757,143.086990 120.708031,142.955673 
	C123.987762,142.908478 125.063683,144.249084 125.016220,147.401001 
	C124.777145,163.278366 126.832130,160.766357 112.171463,160.959946 
	C106.031799,161.041031 99.888725,160.889969 93.749901,160.997894 
	C90.368645,161.057312 88.871162,159.642471 88.998810,156.249054 
	C89.117256,153.100128 89.025803,149.943298 89.043915,146.332367 
z"/>
<path fill="#5BB2CF" opacity="1.000000" stroke="none" 
	d="
M142.491638,159.259705 
	C142.207047,154.883789 142.189789,150.903549 142.003906,146.931213 
	C141.857788,143.808456 143.425491,142.943344 146.267258,142.969788 
	C155.396744,143.054764 164.528687,143.084732 173.657150,142.955765 
	C176.890823,142.910080 178.065125,144.152252 178.016968,147.351807 
	C177.777008,163.294968 179.829849,160.761398 165.214996,160.960815 
	C159.405899,161.040085 153.592163,161.070740 147.786285,160.912567 
	C146.076157,160.865982 144.385727,160.096832 142.491638,159.259705 
z"/>
<path fill="#5BB1CF" opacity="1.000000" stroke="none" 
	d="
M211.553040,142.958023 
	C216.831635,142.957550 221.640640,142.945969 226.448532,143.014343 
	C227.588211,143.030563 229.691452,143.219147 229.718292,143.490173 
	C230.214172,148.497650 230.754883,153.545151 230.491653,158.542358 
	C230.444336,159.440582 226.887085,160.778305 224.915909,160.841721 
	C216.799088,161.102875 208.667816,161.024216 200.544769,160.891571 
	C198.838104,160.863708 197.143814,160.078949 195.219269,159.322998 
	C195.004425,155.020554 195.115128,151.034912 194.990860,147.056595 
	C194.896835,144.045776 196.177704,142.879181 199.136551,142.969757 
	C203.115051,143.091553 207.100571,142.984802 211.553040,142.958023 
z"/>
<path fill="#5BB2CF" opacity="1.000000" stroke="none" 
	d="
M51.004856,195.994720 
	C57.003300,195.997635 62.503498,196.060745 68.001480,195.977585 
	C70.667763,195.937256 72.152412,196.876114 71.973907,199.724365 
	C71.953117,200.056107 71.983879,200.390732 71.980415,200.723923 
	C71.820145,216.143860 73.785034,213.782684 59.246201,213.960861 
	C53.081291,214.036438 46.913158,213.887589 40.749340,213.998795 
	C37.336555,214.060349 35.935162,212.607086 35.998734,209.215179 
	C36.301296,193.071548 33.830669,196.387253 48.506004,195.997025 
	C49.172119,195.979309 49.839111,195.994736 51.004856,195.994720 
z"/>
<path fill="#FC7C2F" opacity="1.000000" stroke="none" 
	d="
M36.267197,63.529869 
	C43.715126,63.072147 51.045547,63.177410 58.368786,62.994831 
	C61.799446,62.909302 62.985542,64.113182 63.059414,67.602936 
	C63.343151,81.006584 63.451878,81.005096 50.230583,81.003830 
	C45.900623,81.003418 41.570660,80.997612 36.794655,80.987244 
	C36.281319,75.311783 36.214031,69.643356 36.267197,63.529869 
z"/>
<path fill="#FD7B2E" opacity="1.000000" stroke="none" 
	d="
M106.905029,80.539703 
	C99.510605,81.002747 92.178902,80.843239 84.858849,81.066292 
	C81.087227,81.181229 79.943642,79.736076 80.016182,76.108597 
	C80.322296,60.801643 78.205902,63.270935 92.932594,63.056763 
	C97.261124,62.993813 101.591446,63.054920 106.378937,63.070770 
	C106.882141,68.746796 106.927361,74.411217 106.905029,80.539703 
z"/>
<path fill="#5CB3CF" opacity="1.000000" stroke="none" 
	d="
M257.004211,50.000595 
	C257.004150,36.820602 257.004700,36.964073 269.616028,36.915012 
	C273.679840,36.899204 275.291809,38.094330 275.067596,42.291405 
	C274.775665,47.755951 274.879120,53.250965 275.034698,58.726551 
	C275.127533,61.994320 273.768188,63.324963 270.603119,63.020592 
	C270.274170,62.988953 269.939270,63.016327 269.607178,63.021057 
	C257.004059,63.200687 257.004059,63.200760 257.004211,50.000595 
z"/>
<path fill="#5CB2CF" opacity="1.000000" stroke="none" 
	d="
M310.073669,41.613445 
	C310.074219,47.524014 309.889832,53.013008 310.065826,58.490425 
	C310.178619,62.001190 308.788971,63.251850 305.377899,63.081028 
	C301.564697,62.890068 297.734741,63.033463 293.440796,63.022270 
	C292.658630,55.725536 292.381104,48.436226 292.020477,41.151028 
	C291.875153,38.215549 293.026886,36.848915 296.075348,36.973701 
	C299.395874,37.109631 302.731934,37.124611 306.050720,36.968315 
	C309.176300,36.821121 310.238190,38.336964 310.073669,41.613445 
z"/>
<path fill="#DE4B3A" opacity="1.000000" stroke="none" 
	d="
M420.919189,248.969879 
	C425.142822,240.316315 425.148346,231.071503 425.058441,221.721588 
	C424.887177,203.908539 425.040894,186.092377 425.508179,167.750610 
	C434.112610,164.103409 442.268524,160.983109 450.424438,157.862823 
	C456.619781,173.841446 463.085724,189.721710 468.939148,205.824646 
	C475.641205,224.262222 467.273224,242.982559 449.261322,250.879959 
	C445.149017,252.683029 440.921692,254.223724 436.117920,255.793961 
	C431.620758,251.319061 427.309906,247.894165 420.919189,248.969879 
z"/>
<path fill="#F0A36E" opacity="1.000000" stroke="none" 
	d="
M420.948059,248.985428 
	C427.309906,247.894165 431.620758,251.319061 435.768036,255.899658 
	C445.850647,266.046478 455.810913,275.849884 465.329285,286.065094 
	C467.325867,288.207794 468.811249,291.956360 468.580475,294.806976 
	C468.117188,300.530792 461.636230,303.383850 456.468628,300.672913 
	C454.595276,299.690186 452.867401,298.282562 451.354034,296.784973 
	C441.419464,286.954132 431.651672,276.953278 421.638916,267.203613 
	C417.021240,262.707306 414.590302,258.009094 417.960999,251.379120 
	C418.513275,250.797760 418.993439,250.586990 419.955688,250.115723 
	C420.622284,249.549164 420.806824,249.243118 420.991333,248.937057 
	C420.991333,248.937057 420.976959,249.000977 420.948059,248.985428 
z"/>
<path fill="#7A482F" opacity="1.000000" stroke="none" 
	d="
M450.333740,157.490555 
	C442.268524,160.983109 434.112610,164.103409 425.578796,167.312134 
	C425.149170,142.699478 425.097504,117.998413 425.405151,92.772125 
	C425.903076,92.076012 426.041687,91.905128 426.180267,91.734245 
	C426.180267,91.734245 426.241943,91.603851 426.312683,91.611603 
	C426.747742,93.641899 426.807831,95.779686 427.523376,97.669243 
	C435.036377,117.508385 442.654175,137.307846 450.333740,157.490555 
z"/>
<path fill="#5BB1CF" opacity="1.000000" stroke="none" 
	d="
M195.029633,204.013428 
	C195.047928,195.993134 195.047928,195.990921 202.613770,195.989655 
	C210.576630,195.988327 218.540802,196.075485 226.501694,195.951096 
	C229.593994,195.902771 231.057373,196.843155 231.003494,200.186905 
	C230.741013,216.476715 232.936005,213.699936 217.887466,213.938110 
	C212.414368,214.024734 206.920700,213.675964 201.469528,214.032318 
	C196.413803,214.362823 194.348907,212.465820 195.011154,207.472626 
	C195.140884,206.494476 195.029663,205.484390 195.029633,204.013428 
z"/>
<path fill="#5CB2CF" opacity="1.000000" stroke="none" 
	d="
M363.012329,48.024445 
	C363.197113,35.358582 361.350342,37.133148 373.610779,37.006725 
	C380.984131,36.930695 380.987000,36.997360 380.990204,44.264984 
	C380.992310,49.085331 380.866058,53.909737 381.027496,58.724606 
	C381.136505,61.975815 379.801727,62.991047 376.624237,63.098759 
	C363.009216,63.560272 363.012115,63.645969 363.012329,48.024445 
z"/>
<path fill="#5BB2CF" opacity="1.000000" stroke="none" 
	d="
M328.299072,38.522236 
	C333.664948,37.791859 338.872803,37.360329 344.082001,37.343140 
	C344.697571,37.341110 345.819244,39.595211 345.855957,40.828796 
	C346.039032,46.976032 345.884369,53.132385 345.960663,59.284138 
	C345.995514,62.095474 344.672760,62.920807 342.006836,63.083862 
	C327.981171,63.941700 327.974243,64.000061 327.991943,49.912926 
	C327.996552,46.257057 328.089264,42.601299 328.299072,38.522236 
z"/>
<path fill="#55AAAA" opacity="1.000000" stroke="none" 
	d="
M425.058105,37.401787 
	C425.387299,38.299953 425.955414,39.668549 425.959930,41.038998 
	C426.012543,57.022305 425.980316,73.005890 425.703369,89.488312 
	C425.436218,89.987236 425.051697,90.088722 425.051697,90.088722 
	C425.046204,72.683510 425.040710,55.278290 425.058105,37.401787 
z"/>
<path fill="#FFB57F" opacity="1.000000" stroke="none" 
	d="
M425.040955,90.476189 
	C425.051697,90.088722 425.436218,89.987236 425.630707,89.945892 
	C426.053375,90.307556 426.281525,90.710571 426.344971,91.423912 
	C426.041687,91.905128 425.903076,92.076012 425.445190,92.331177 
	C425.093994,91.898193 425.062103,91.380920 425.040955,90.476189 
z"/>
<path fill="#DE4B3A" opacity="1.000000" stroke="none" 
	d="
M420.708130,249.004425 
	C420.806824,249.243118 420.622284,249.549164 420.188202,249.982285 
	C420.100739,249.763504 420.262817,249.417648 420.708130,249.004425 
z"/>
<path fill="#699529" opacity="1.000000" stroke="none" 
	d="
M381.090302,454.415405 
	C383.670746,453.309387 386.190796,452.105072 388.717407,452.091156 
	C400.325073,452.027344 398.868652,450.512970 398.950836,461.932526 
	C399.008667,469.971375 398.956757,470.027527 391.051056,469.965393 
	C379.540802,469.874939 381.132812,471.396240 380.994568,459.858398 
	C380.974640,458.194489 381.018555,456.529755 381.090302,454.415405 
z"/>
</svg>